#N canvas 0 49 1920 1008 12;
#X obj 190 598 output~;
#X obj 190 552 hip~ 5;
#N canvas 98 109 450 323 ad15sounds 0;
#X obj 6 21 inlet~;
#X obj 61 21 inlet~;
#X obj 112 22 inlet~;
#X obj 447 266 outlet~;
#X obj 6 54 +~;
#X obj 6 81 +~;
#X obj 165 22 inlet~;
#X obj 220 22 inlet~;
#X obj 271 23 inlet~;
#X obj 165 55 +~;
#X obj 165 82 +~;
#X obj 60 121 +~;
#X obj 323 21 inlet~;
#X obj 378 21 inlet~;
#X obj 429 22 inlet~;
#X obj 323 54 +~;
#X obj 323 81 +~;
#X obj 482 22 inlet~;
#X obj 537 22 inlet~;
#X obj 588 23 inlet~;
#X obj 482 55 +~;
#X obj 482 82 +~;
#X obj 377 121 +~;
#X obj 210 163 +~;
#X obj 644 23 inlet~;
#X obj 699 23 inlet~;
#X obj 750 24 inlet~;
#X obj 644 56 +~;
#X obj 644 83 +~;
#X obj 447 220 +~;
#X connect 0 0 4 0;
#X connect 1 0 4 1;
#X connect 2 0 5 1;
#X connect 4 0 5 0;
#X connect 5 0 11 0;
#X connect 6 0 9 0;
#X connect 7 0 9 1;
#X connect 8 0 10 1;
#X connect 9 0 10 0;
#X connect 10 0 11 1;
#X connect 11 0 23 0;
#X connect 12 0 15 0;
#X connect 13 0 15 1;
#X connect 14 0 16 1;
#X connect 15 0 16 0;
#X connect 16 0 22 0;
#X connect 17 0 20 0;
#X connect 18 0 20 1;
#X connect 19 0 21 1;
#X connect 20 0 21 0;
#X connect 21 0 22 1;
#X connect 22 0 23 1;
#X connect 23 0 29 0;
#X connect 24 0 27 0;
#X connect 25 0 27 1;
#X connect 26 0 28 1;
#X connect 27 0 28 0;
#X connect 28 0 29 1;
#X connect 29 0 3 0;
#X restore 191 515 pd ad15sounds;
#X obj 128 -7 notein 1;
#N canvas 505 234 450 323 miditosound 0;
#X obj 85 17 inlet;
#X obj 257 19 inlet;
#X obj 146 315 outlet~;
#X floatatom 140 50 5 0 0 0 - - -, f 5;
#X text 140 26 NOTENUM;
#X floatatom 203 51 5 0 0 0 - - -, f 5;
#X text 202 26 on/off;
#X obj 140 82 mtof;
#X obj 140 109 phasor~;
#X text 237 137 off;
#X obj 255 112 sel 0;
#X text 297 138 on;
#X obj 255 87 float;
#X obj 298 163 / 127;
#X msg 239 163 0 1000;
#X obj 240 223 line~;
#X obj 146 277 *~;
#X msg 298 190 \$1 10;
#X connect 0 0 3 0;
#X connect 1 0 5 0;
#X connect 3 0 7 0;
#X connect 5 0 12 0;
#X connect 7 0 8 0;
#X connect 8 0 16 0;
#X connect 10 0 14 0;
#X connect 10 1 13 0;
#X connect 12 0 10 0;
#X connect 13 0 17 0;
#X connect 14 0 15 0;
#X connect 15 0 16 1;
#X connect 16 0 2 0;
#X connect 17 0 15 0;
#X restore 128 24 pd miditosound;
#N canvas 505 234 450 323 miditosound 0;
#X obj 85 17 inlet;
#X obj 257 19 inlet;
#X obj 146 315 outlet~;
#X floatatom 140 50 5 0 0 0 - - -, f 5;
#X text 140 26 NOTENUM;
#X floatatom 203 51 5 0 0 0 - - -, f 5;
#X text 202 26 on/off;
#X obj 140 82 mtof;
#X obj 140 109 phasor~;
#X text 237 137 off;
#X obj 255 112 sel 0;
#X text 297 138 on;
#X obj 255 87 float;
#X msg 298 190 \$1 100;
#X obj 298 163 / 127;
#X msg 239 163 0 1000;
#X obj 240 223 line~;
#X obj 146 277 *~;
#X connect 0 0 3 0;
#X connect 1 0 5 0;
#X connect 3 0 7 0;
#X connect 5 0 12 0;
#X connect 7 0 8 0;
#X connect 8 0 17 0;
#X connect 10 0 15 0;
#X connect 10 1 14 0;
#X connect 12 0 10 0;
#X connect 13 0 16 0;
#X connect 14 0 13 0;
#X connect 15 0 16 0;
#X connect 16 0 17 1;
#X connect 17 0 2 0;
#X restore 142 78 pd miditosound;
#X obj 142 48 notein 2;
#N canvas 505 234 450 323 miditosound 0;
#X obj 85 17 inlet;
#X obj 257 19 inlet;
#X obj 146 315 outlet~;
#X floatatom 140 50 5 0 0 0 - - -, f 5;
#X text 140 26 NOTENUM;
#X floatatom 203 51 5 0 0 0 - - -, f 5;
#X text 202 26 on/off;
#X obj 140 82 mtof;
#X obj 140 109 phasor~;
#X text 237 137 off;
#X obj 255 112 sel 0;
#X text 297 138 on;
#X obj 255 87 float;
#X obj 298 163 / 127;
#X msg 239 163 0 1000;
#X obj 240 223 line~;
#X obj 146 277 *~;
#X msg 298 190 \$1 10;
#X connect 0 0 3 0;
#X connect 1 0 5 0;
#X connect 3 0 7 0;
#X connect 5 0 12 0;
#X connect 7 0 8 0;
#X connect 8 0 16 0;
#X connect 10 0 14 0;
#X connect 10 1 13 0;
#X connect 12 0 10 0;
#X connect 13 0 17 0;
#X connect 14 0 15 0;
#X connect 15 0 16 1;
#X connect 16 0 2 0;
#X connect 17 0 15 0;
#X restore 153 134 pd miditosound;
#X obj 153 104 notein 3;
#N canvas 505 234 450 323 miditosound 0;
#X obj 85 17 inlet;
#X obj 257 19 inlet;
#X obj 146 315 outlet~;
#X floatatom 140 50 5 0 0 0 - - -, f 5;
#X text 140 26 NOTENUM;
#X floatatom 203 51 5 0 0 0 - - -, f 5;
#X text 202 26 on/off;
#X obj 140 82 mtof;
#X obj 140 109 phasor~;
#X text 237 137 off;
#X obj 255 112 sel 0;
#X text 297 138 on;
#X obj 255 87 float;
#X obj 298 163 / 127;
#X msg 239 163 0 1000;
#X obj 240 223 line~;
#X obj 146 277 *~;
#X msg 298 190 \$1 10;
#X connect 0 0 3 0;
#X connect 1 0 5 0;
#X connect 3 0 7 0;
#X connect 5 0 12 0;
#X connect 7 0 8 0;
#X connect 8 0 16 0;
#X connect 10 0 14 0;
#X connect 10 1 13 0;
#X connect 12 0 10 0;
#X connect 13 0 17 0;
#X connect 14 0 15 0;
#X connect 15 0 16 1;
#X connect 16 0 2 0;
#X connect 17 0 15 0;
#X restore 363 41 pd miditosound;
#N canvas 505 234 450 323 miditosound 0;
#X obj 85 17 inlet;
#X obj 257 19 inlet;
#X obj 146 315 outlet~;
#X floatatom 140 50 5 0 0 0 - - -, f 5;
#X text 140 26 NOTENUM;
#X floatatom 203 51 5 0 0 0 - - -, f 5;
#X text 202 26 on/off;
#X obj 140 82 mtof;
#X obj 140 109 phasor~;
#X text 237 137 off;
#X obj 255 112 sel 0;
#X text 297 138 on;
#X obj 255 87 float;
#X msg 298 190 \$1 100;
#X obj 298 163 / 127;
#X msg 239 163 0 1000;
#X obj 240 223 line~;
#X obj 146 277 *~;
#X connect 0 0 3 0;
#X connect 1 0 5 0;
#X connect 3 0 7 0;
#X connect 5 0 12 0;
#X connect 7 0 8 0;
#X connect 8 0 17 0;
#X connect 10 0 15 0;
#X connect 10 1 14 0;
#X connect 12 0 10 0;
#X connect 13 0 16 0;
#X connect 14 0 13 0;
#X connect 15 0 16 0;
#X connect 16 0 17 1;
#X connect 17 0 2 0;
#X restore 377 93 pd miditosound;
#N canvas 505 234 450 323 miditosound 0;
#X obj 85 17 inlet;
#X obj 257 19 inlet;
#X obj 146 315 outlet~;
#X floatatom 140 50 5 0 0 0 - - -, f 5;
#X text 140 26 NOTENUM;
#X floatatom 203 51 5 0 0 0 - - -, f 5;
#X text 202 26 on/off;
#X obj 140 82 mtof;
#X obj 140 109 phasor~;
#X text 237 137 off;
#X obj 255 112 sel 0;
#X text 297 138 on;
#X obj 255 87 float;
#X obj 298 163 / 127;
#X msg 239 163 0 1000;
#X obj 240 223 line~;
#X obj 146 277 *~;
#X msg 298 190 \$1 10;
#X connect 0 0 3 0;
#X connect 1 0 5 0;
#X connect 3 0 7 0;
#X connect 5 0 12 0;
#X connect 7 0 8 0;
#X connect 8 0 16 0;
#X connect 10 0 14 0;
#X connect 10 1 13 0;
#X connect 12 0 10 0;
#X connect 13 0 17 0;
#X connect 14 0 15 0;
#X connect 15 0 16 1;
#X connect 16 0 2 0;
#X connect 17 0 15 0;
#X restore 388 143 pd miditosound;
#X obj 363 11 notein 4;
#X obj 377 66 notein 5;
#X obj 388 119 notein 6;
#N canvas 505 234 450 323 miditosound 0;
#X obj 85 17 inlet;
#X obj 257 19 inlet;
#X obj 146 315 outlet~;
#X floatatom 140 50 5 0 0 0 - - -, f 5;
#X text 140 26 NOTENUM;
#X floatatom 203 51 5 0 0 0 - - -, f 5;
#X text 202 26 on/off;
#X obj 140 82 mtof;
#X obj 140 109 phasor~;
#X text 237 137 off;
#X obj 255 112 sel 0;
#X text 297 138 on;
#X obj 255 87 float;
#X obj 298 163 / 127;
#X msg 239 163 0 1000;
#X obj 240 223 line~;
#X obj 146 277 *~;
#X msg 298 190 \$1 10;
#X connect 0 0 3 0;
#X connect 1 0 5 0;
#X connect 3 0 7 0;
#X connect 5 0 12 0;
#X connect 7 0 8 0;
#X connect 8 0 16 0;
#X connect 10 0 14 0;
#X connect 10 1 13 0;
#X connect 12 0 10 0;
#X connect 13 0 17 0;
#X connect 14 0 15 0;
#X connect 15 0 16 1;
#X connect 16 0 2 0;
#X connect 17 0 15 0;
#X restore 646 37 pd miditosound;
#N canvas 505 234 450 323 miditosound 0;
#X obj 85 17 inlet;
#X obj 257 19 inlet;
#X obj 146 315 outlet~;
#X floatatom 140 50 5 0 0 0 - - -, f 5;
#X text 140 26 NOTENUM;
#X floatatom 203 51 5 0 0 0 - - -, f 5;
#X text 202 26 on/off;
#X obj 140 82 mtof;
#X obj 140 109 phasor~;
#X text 237 137 off;
#X obj 255 112 sel 0;
#X text 297 138 on;
#X obj 255 87 float;
#X msg 298 190 \$1 100;
#X obj 298 163 / 127;
#X msg 239 163 0 1000;
#X obj 240 223 line~;
#X obj 146 277 *~;
#X connect 0 0 3 0;
#X connect 1 0 5 0;
#X connect 3 0 7 0;
#X connect 5 0 12 0;
#X connect 7 0 8 0;
#X connect 8 0 17 0;
#X connect 10 0 15 0;
#X connect 10 1 14 0;
#X connect 12 0 10 0;
#X connect 13 0 16 0;
#X connect 14 0 13 0;
#X connect 15 0 16 0;
#X connect 16 0 17 1;
#X connect 17 0 2 0;
#X restore 649 93 pd miditosound;
#N canvas 731 140 450 346 miditosound 0;
#X obj 85 17 inlet;
#X obj 257 19 inlet;
#X obj 146 315 outlet~;
#X floatatom 140 50 5 0 0 0 - - -, f 5;
#X text 140 26 NOTENUM;
#X floatatom 203 51 5 0 0 0 - - -, f 5;
#X text 202 26 on/off;
#X obj 140 82 mtof;
#X obj 140 109 phasor~;
#X text 237 137 off;
#X obj 255 112 sel 0;
#X text 297 138 on;
#X obj 255 87 float;
#X obj 298 163 / 127;
#X msg 239 163 0 1000;
#X obj 240 223 line~;
#X obj 146 277 *~;
#X msg 298 190 \$1 10;
#X connect 0 0 3 0;
#X connect 1 0 5 0;
#X connect 3 0 7 0;
#X connect 5 0 12 0;
#X connect 7 0 8 0;
#X connect 8 0 16 0;
#X connect 10 0 14 0;
#X connect 10 1 13 0;
#X connect 12 0 10 0;
#X connect 13 0 17 0;
#X connect 14 0 15 0;
#X connect 15 0 16 1;
#X connect 16 0 2 0;
#X connect 17 0 15 0;
#X restore 652 153 pd miditosound;
#X obj 646 7 notein 7;
#X obj 649 63 notein 8;
#X obj 652 121 notein 9;
#N canvas 505 234 450 323 miditosound 0;
#X obj 85 17 inlet;
#X obj 257 19 inlet;
#X obj 146 315 outlet~;
#X floatatom 140 50 5 0 0 0 - - -, f 5;
#X text 140 26 NOTENUM;
#X floatatom 203 51 5 0 0 0 - - -, f 5;
#X text 202 26 on/off;
#X obj 140 82 mtof;
#X obj 140 109 phasor~;
#X text 237 137 off;
#X obj 255 112 sel 0;
#X text 297 138 on;
#X obj 255 87 float;
#X obj 298 163 / 127;
#X msg 239 163 0 1000;
#X obj 240 223 line~;
#X obj 146 277 *~;
#X msg 298 190 \$1 10;
#X connect 0 0 3 0;
#X connect 1 0 5 0;
#X connect 3 0 7 0;
#X connect 5 0 12 0;
#X connect 7 0 8 0;
#X connect 8 0 16 0;
#X connect 10 0 14 0;
#X connect 10 1 13 0;
#X connect 12 0 10 0;
#X connect 13 0 17 0;
#X connect 14 0 15 0;
#X connect 15 0 16 1;
#X connect 16 0 2 0;
#X connect 17 0 15 0;
#X restore 883 82 pd miditosound;
#N canvas 505 234 450 323 miditosound 0;
#X obj 85 17 inlet;
#X obj 257 19 inlet;
#X obj 146 315 outlet~;
#X floatatom 140 50 5 0 0 0 - - -, f 5;
#X text 140 26 NOTENUM;
#X floatatom 203 51 5 0 0 0 - - -, f 5;
#X text 202 26 on/off;
#X obj 140 82 mtof;
#X obj 140 109 phasor~;
#X text 237 137 off;
#X obj 255 112 sel 0;
#X text 297 138 on;
#X obj 255 87 float;
#X msg 298 190 \$1 100;
#X obj 298 163 / 127;
#X msg 239 163 0 1000;
#X obj 240 223 line~;
#X obj 146 277 *~;
#X connect 0 0 3 0;
#X connect 1 0 5 0;
#X connect 3 0 7 0;
#X connect 5 0 12 0;
#X connect 7 0 8 0;
#X connect 8 0 17 0;
#X connect 10 0 15 0;
#X connect 10 1 14 0;
#X connect 12 0 10 0;
#X connect 13 0 16 0;
#X connect 14 0 13 0;
#X connect 15 0 16 0;
#X connect 16 0 17 1;
#X connect 17 0 2 0;
#X restore 886 136 pd miditosound;
#N canvas 505 234 450 323 miditosound 0;
#X obj 85 17 inlet;
#X obj 257 19 inlet;
#X obj 146 315 outlet~;
#X floatatom 140 50 5 0 0 0 - - -, f 5;
#X text 140 26 NOTENUM;
#X floatatom 203 51 5 0 0 0 - - -, f 5;
#X text 202 26 on/off;
#X obj 140 82 mtof;
#X obj 140 109 phasor~;
#X text 237 137 off;
#X obj 255 112 sel 0;
#X text 297 138 on;
#X obj 255 87 float;
#X obj 298 163 / 127;
#X msg 239 163 0 1000;
#X obj 240 223 line~;
#X obj 146 277 *~;
#X msg 298 190 \$1 10;
#X connect 0 0 3 0;
#X connect 1 0 5 0;
#X connect 3 0 7 0;
#X connect 5 0 12 0;
#X connect 7 0 8 0;
#X connect 8 0 16 0;
#X connect 10 0 14 0;
#X connect 10 1 13 0;
#X connect 12 0 10 0;
#X connect 13 0 17 0;
#X connect 14 0 15 0;
#X connect 15 0 16 1;
#X connect 16 0 2 0;
#X connect 17 0 15 0;
#X restore 887 193 pd miditosound;
#X obj 883 52 notein 10;
#X obj 885 106 notein 11;
#X obj 887 161 notein 12;
#N canvas 505 234 450 323 miditosound 0;
#X obj 85 17 inlet;
#X obj 257 19 inlet;
#X obj 146 315 outlet~;
#X floatatom 140 50 5 0 0 0 - - -, f 5;
#X text 140 26 NOTENUM;
#X floatatom 203 51 5 0 0 0 - - -, f 5;
#X text 202 26 on/off;
#X obj 140 82 mtof;
#X obj 140 109 phasor~;
#X text 237 137 off;
#X obj 255 112 sel 0;
#X text 297 138 on;
#X obj 255 87 float;
#X obj 298 163 / 127;
#X msg 239 163 0 1000;
#X obj 240 223 line~;
#X obj 146 277 *~;
#X msg 298 190 \$1 10;
#X connect 0 0 3 0;
#X connect 1 0 5 0;
#X connect 3 0 7 0;
#X connect 5 0 12 0;
#X connect 7 0 8 0;
#X connect 8 0 16 0;
#X connect 10 0 14 0;
#X connect 10 1 13 0;
#X connect 12 0 10 0;
#X connect 13 0 17 0;
#X connect 14 0 15 0;
#X connect 15 0 16 1;
#X connect 16 0 2 0;
#X connect 17 0 15 0;
#X restore 1116 230 pd miditosound;
#N canvas 505 234 450 323 miditosound 0;
#X obj 85 17 inlet;
#X obj 257 19 inlet;
#X obj 146 315 outlet~;
#X floatatom 140 50 5 0 0 0 - - -, f 5;
#X text 140 26 NOTENUM;
#X floatatom 203 51 5 0 0 0 - - -, f 5;
#X text 202 26 on/off;
#X obj 140 82 mtof;
#X obj 140 109 phasor~;
#X text 237 137 off;
#X obj 255 112 sel 0;
#X text 297 138 on;
#X obj 255 87 float;
#X msg 298 190 \$1 100;
#X obj 298 163 / 127;
#X msg 239 163 0 1000;
#X obj 240 223 line~;
#X obj 146 277 *~;
#X connect 0 0 3 0;
#X connect 1 0 5 0;
#X connect 3 0 7 0;
#X connect 5 0 12 0;
#X connect 7 0 8 0;
#X connect 8 0 17 0;
#X connect 10 0 15 0;
#X connect 10 1 14 0;
#X connect 12 0 10 0;
#X connect 13 0 16 0;
#X connect 14 0 13 0;
#X connect 15 0 16 0;
#X connect 16 0 17 1;
#X connect 17 0 2 0;
#X restore 1116 285 pd miditosound;
#N canvas 505 234 450 323 miditosound 0;
#X obj 85 17 inlet;
#X obj 257 19 inlet;
#X obj 146 315 outlet~;
#X floatatom 140 50 5 0 0 0 - - -, f 5;
#X text 140 26 NOTENUM;
#X floatatom 203 51 5 0 0 0 - - -, f 5;
#X text 202 26 on/off;
#X obj 140 82 mtof;
#X obj 140 109 phasor~;
#X text 237 137 off;
#X obj 255 112 sel 0;
#X text 297 138 on;
#X obj 255 87 float;
#X obj 298 163 / 127;
#X msg 239 163 0 1000;
#X obj 240 223 line~;
#X obj 146 277 *~;
#X msg 298 190 \$1 10;
#X connect 0 0 3 0;
#X connect 1 0 5 0;
#X connect 3 0 7 0;
#X connect 5 0 12 0;
#X connect 7 0 8 0;
#X connect 8 0 16 0;
#X connect 10 0 14 0;
#X connect 10 1 13 0;
#X connect 12 0 10 0;
#X connect 13 0 17 0;
#X connect 14 0 15 0;
#X connect 15 0 16 1;
#X connect 16 0 2 0;
#X connect 17 0 15 0;
#X restore 1116 345 pd miditosound;
#X obj 1116 200 notein 13;
#X obj 1116 255 notein 14;
#X obj 1116 313 notein 15;
#X floatatom 28 44 5 0 0 0 - - -, f 5;
#X obj 28 21 touchin 1;
#X floatatom 54 119 5 0 0 0 - - -, f 5;
#X obj 49 91 touchin 2;
#N canvas 0 0 450 300 fremod 0;
#X obj 129 35 inlet~;
#X obj 64 36 inlet;
#X obj 69 214 outlet~;
#X obj 77 111 osc~;
#X floatatom 166 100 5 0 0 0 - - -, f 5;
#X obj 97 161 +~;
#X obj 64 65 * 10;
#X connect 0 0 5 1;
#X connect 1 0 6 0;
#X connect 3 0 5 0;
#X connect 5 0 2 0;
#X connect 6 0 4 0;
#X connect 6 0 3 0;
#X restore 28 67 pd fremod;
#N canvas 0 0 450 300 fremod 0;
#X obj 129 35 inlet~;
#X obj 64 36 inlet;
#X obj 69 214 outlet~;
#X obj 77 111 osc~;
#X floatatom 166 100 5 0 0 0 - - -, f 5;
#X obj 97 161 +~;
#X obj 64 65 * 10;
#X connect 0 0 5 1;
#X connect 1 0 6 0;
#X connect 3 0 5 0;
#X connect 5 0 2 0;
#X connect 6 0 4 0;
#X connect 6 0 3 0;
#X restore 58 146 pd fremod;
#X floatatom 82 196 5 0 0 0 - - -, f 5;
#N canvas 0 0 450 300 fremod 0;
#X obj 129 35 inlet~;
#X obj 64 36 inlet;
#X obj 69 214 outlet~;
#X obj 77 111 osc~;
#X floatatom 166 100 5 0 0 0 - - -, f 5;
#X obj 97 161 +~;
#X obj 64 65 * 10;
#X connect 0 0 5 1;
#X connect 1 0 6 0;
#X connect 3 0 5 0;
#X connect 5 0 2 0;
#X connect 6 0 4 0;
#X connect 6 0 3 0;
#X restore 93 219 pd fremod;
#X obj 76 170 touchin 3;
#X floatatom 270 45 5 0 0 0 - - -, f 5;
#X floatatom 296 120 5 0 0 0 - - -, f 5;
#N canvas 0 0 450 300 fremod 0;
#X obj 129 35 inlet~;
#X obj 64 36 inlet;
#X obj 69 214 outlet~;
#X obj 77 111 osc~;
#X floatatom 166 100 5 0 0 0 - - -, f 5;
#X obj 97 161 +~;
#X obj 64 65 * 10;
#X connect 0 0 5 1;
#X connect 1 0 6 0;
#X connect 3 0 5 0;
#X connect 5 0 2 0;
#X connect 6 0 4 0;
#X connect 6 0 3 0;
#X restore 270 68 pd fremod;
#N canvas 0 0 450 300 fremod 0;
#X obj 129 35 inlet~;
#X obj 64 36 inlet;
#X obj 69 214 outlet~;
#X obj 77 111 osc~;
#X floatatom 166 100 5 0 0 0 - - -, f 5;
#X obj 97 161 +~;
#X obj 64 65 * 10;
#X connect 0 0 5 1;
#X connect 1 0 6 0;
#X connect 3 0 5 0;
#X connect 5 0 2 0;
#X connect 6 0 4 0;
#X connect 6 0 3 0;
#X restore 300 147 pd fremod;
#X floatatom 324 197 5 0 0 0 - - -, f 5;
#N canvas 0 0 450 300 fremod 0;
#X obj 129 35 inlet~;
#X obj 64 36 inlet;
#X obj 69 214 outlet~;
#X obj 77 111 osc~;
#X floatatom 166 100 5 0 0 0 - - -, f 5;
#X obj 97 161 +~;
#X obj 64 65 * 10;
#X connect 0 0 5 1;
#X connect 1 0 6 0;
#X connect 3 0 5 0;
#X connect 5 0 2 0;
#X connect 6 0 4 0;
#X connect 6 0 3 0;
#X restore 335 220 pd fremod;
#X obj 270 21 touchin 4;
#X obj 291 92 touchin 5;
#X obj 318 171 touchin 6;
#X floatatom 532 46 5 0 0 0 - - -, f 5;
#X floatatom 558 121 5 0 0 0 - - -, f 5;
#N canvas 0 0 450 300 fremod 0;
#X obj 129 35 inlet~;
#X obj 64 36 inlet;
#X obj 69 214 outlet~;
#X obj 77 111 osc~;
#X floatatom 166 100 5 0 0 0 - - -, f 5;
#X obj 97 161 +~;
#X obj 64 65 * 10;
#X connect 0 0 5 1;
#X connect 1 0 6 0;
#X connect 3 0 5 0;
#X connect 5 0 2 0;
#X connect 6 0 4 0;
#X connect 6 0 3 0;
#X restore 532 69 pd fremod;
#N canvas 0 0 450 300 fremod 0;
#X obj 129 35 inlet~;
#X obj 64 36 inlet;
#X obj 69 214 outlet~;
#X obj 77 111 osc~;
#X floatatom 166 100 5 0 0 0 - - -, f 5;
#X obj 97 161 +~;
#X obj 64 65 * 10;
#X connect 0 0 5 1;
#X connect 1 0 6 0;
#X connect 3 0 5 0;
#X connect 5 0 2 0;
#X connect 6 0 4 0;
#X connect 6 0 3 0;
#X restore 562 148 pd fremod;
#X floatatom 586 198 5 0 0 0 - - -, f 5;
#N canvas 0 0 450 300 fremod 0;
#X obj 129 35 inlet~;
#X obj 64 36 inlet;
#X obj 69 214 outlet~;
#X obj 77 111 osc~;
#X floatatom 166 100 5 0 0 0 - - -, f 5;
#X obj 97 161 +~;
#X obj 64 65 * 10;
#X connect 0 0 5 1;
#X connect 1 0 6 0;
#X connect 3 0 5 0;
#X connect 5 0 2 0;
#X connect 6 0 4 0;
#X connect 6 0 3 0;
#X restore 597 221 pd fremod;
#X obj 532 23 touchin 7;
#X obj 553 93 touchin 8;
#X obj 580 172 touchin 9;
#X floatatom 790 111 5 0 0 0 - - -, f 5;
#X floatatom 816 186 5 0 0 0 - - -, f 5;
#N canvas 0 0 450 300 fremod 0;
#X obj 129 35 inlet~;
#X obj 64 36 inlet;
#X obj 69 214 outlet~;
#X obj 77 111 osc~;
#X floatatom 166 100 5 0 0 0 - - -, f 5;
#X obj 97 161 +~;
#X obj 64 65 * 10;
#X connect 0 0 5 1;
#X connect 1 0 6 0;
#X connect 3 0 5 0;
#X connect 5 0 2 0;
#X connect 6 0 4 0;
#X connect 6 0 3 0;
#X restore 790 134 pd fremod;
#N canvas 0 0 450 300 fremod 0;
#X obj 129 35 inlet~;
#X obj 64 36 inlet;
#X obj 69 214 outlet~;
#X obj 77 111 osc~;
#X floatatom 166 100 5 0 0 0 - - -, f 5;
#X obj 97 161 +~;
#X obj 64 65 * 10;
#X connect 0 0 5 1;
#X connect 1 0 6 0;
#X connect 3 0 5 0;
#X connect 5 0 2 0;
#X connect 6 0 4 0;
#X connect 6 0 3 0;
#X restore 820 213 pd fremod;
#X floatatom 844 263 5 0 0 0 - - -, f 5;
#N canvas 0 0 450 300 fremod 0;
#X obj 129 35 inlet~;
#X obj 64 36 inlet;
#X obj 69 214 outlet~;
#X obj 77 111 osc~;
#X floatatom 166 100 5 0 0 0 - - -, f 5;
#X obj 97 161 +~;
#X obj 64 65 * 10;
#X connect 0 0 5 1;
#X connect 1 0 6 0;
#X connect 3 0 5 0;
#X connect 5 0 2 0;
#X connect 6 0 4 0;
#X connect 6 0 3 0;
#X restore 855 286 pd fremod;
#X obj 790 87 touchin 10;
#X obj 811 158 touchin 11;
#X obj 838 237 touchin 12;
#X floatatom 998 256 5 0 0 0 - - -, f 5;
#X floatatom 1018 331 5 0 0 0 - - -, f 5;
#N canvas 0 0 450 300 fremod 0;
#X obj 129 35 inlet~;
#X obj 64 36 inlet;
#X obj 69 214 outlet~;
#X obj 77 111 osc~;
#X floatatom 166 100 5 0 0 0 - - -, f 5;
#X obj 97 161 +~;
#X obj 64 65 * 10;
#X connect 0 0 5 1;
#X connect 1 0 6 0;
#X connect 3 0 5 0;
#X connect 5 0 2 0;
#X connect 6 0 4 0;
#X connect 6 0 3 0;
#X restore 998 278 pd fremod;
#N canvas 0 0 450 300 fremod 0;
#X obj 129 35 inlet~;
#X obj 64 36 inlet;
#X obj 69 214 outlet~;
#X obj 77 111 osc~;
#X floatatom 166 100 5 0 0 0 - - -, f 5;
#X obj 97 161 +~;
#X obj 64 65 * 10;
#X connect 0 0 5 1;
#X connect 1 0 6 0;
#X connect 3 0 5 0;
#X connect 5 0 2 0;
#X connect 6 0 4 0;
#X connect 6 0 3 0;
#X restore 1022 358 pd fremod;
#X floatatom 1046 408 5 0 0 0 - - -, f 5;
#N canvas 0 0 450 300 fremod 0;
#X obj 129 35 inlet~;
#X obj 64 36 inlet;
#X obj 69 214 outlet~;
#X obj 77 111 osc~;
#X floatatom 166 100 5 0 0 0 - - -, f 5;
#X obj 97 161 +~;
#X obj 64 65 * 10;
#X connect 0 0 5 1;
#X connect 1 0 6 0;
#X connect 3 0 5 0;
#X connect 5 0 2 0;
#X connect 6 0 4 0;
#X connect 6 0 3 0;
#X restore 1057 431 pd fremod;
#X obj 992 232 touchin 13;
#X obj 1013 303 touchin 14;
#X obj 1040 382 touchin 15;
#X obj 70 447 adc~;
#X obj 76 499 +~;
#X obj 124 545 +~;
#X connect 1 0 80 1;
#X connect 2 0 1 0;
#X connect 3 0 4 0;
#X connect 3 1 4 1;
#X connect 4 0 37 1;
#X connect 5 0 38 1;
#X connect 6 0 5 0;
#X connect 6 1 5 1;
#X connect 7 0 40 1;
#X connect 8 0 7 0;
#X connect 8 1 7 1;
#X connect 9 0 44 1;
#X connect 10 0 45 1;
#X connect 11 0 47 1;
#X connect 12 0 9 0;
#X connect 12 1 9 1;
#X connect 13 0 10 0;
#X connect 13 1 10 1;
#X connect 14 0 11 0;
#X connect 14 1 11 1;
#X connect 15 0 53 1;
#X connect 16 0 54 1;
#X connect 17 0 56 1;
#X connect 18 0 15 0;
#X connect 18 1 15 1;
#X connect 19 0 16 0;
#X connect 19 1 16 1;
#X connect 20 0 17 0;
#X connect 20 1 17 1;
#X connect 21 0 62 1;
#X connect 22 0 63 1;
#X connect 23 0 65 1;
#X connect 24 0 21 0;
#X connect 24 1 21 1;
#X connect 25 0 22 0;
#X connect 25 1 22 1;
#X connect 26 0 23 0;
#X connect 26 1 23 1;
#X connect 27 0 71 1;
#X connect 28 0 72 1;
#X connect 29 0 74 1;
#X connect 30 0 27 0;
#X connect 30 1 27 1;
#X connect 31 0 28 0;
#X connect 31 1 28 1;
#X connect 32 0 29 0;
#X connect 32 1 29 1;
#X connect 33 0 37 0;
#X connect 34 0 33 0;
#X connect 35 0 38 0;
#X connect 36 0 35 0;
#X connect 37 0 2 0;
#X connect 38 0 2 1;
#X connect 39 0 40 0;
#X connect 40 0 2 2;
#X connect 41 0 39 0;
#X connect 42 0 44 0;
#X connect 43 0 45 0;
#X connect 44 0 2 3;
#X connect 45 0 2 4;
#X connect 46 0 47 0;
#X connect 47 0 2 5;
#X connect 48 0 42 0;
#X connect 49 0 43 0;
#X connect 50 0 46 0;
#X connect 51 0 53 0;
#X connect 52 0 54 0;
#X connect 53 0 2 6;
#X connect 54 0 2 7;
#X connect 55 0 56 0;
#X connect 56 0 2 8;
#X connect 57 0 51 0;
#X connect 58 0 52 0;
#X connect 59 0 55 0;
#X connect 60 0 62 0;
#X connect 61 0 63 0;
#X connect 62 0 2 9;
#X connect 63 0 2 10;
#X connect 64 0 65 0;
#X connect 65 0 2 11;
#X connect 66 0 60 0;
#X connect 67 0 61 0;
#X connect 68 0 64 0;
#X connect 69 0 71 0;
#X connect 70 0 72 0;
#X connect 71 0 2 12;
#X connect 72 0 2 13;
#X connect 73 0 74 0;
#X connect 74 0 2 14;
#X connect 75 0 69 0;
#X connect 76 0 70 0;
#X connect 77 0 73 0;
#X connect 78 0 79 0;
#X connect 78 1 79 1;
#X connect 79 0 80 0;
#X connect 80 0 0 1;
#X connect 80 0 0 0;
